REM DIRINDEX 1\2\6,1\2\7,1\2\8,1\3\9,1\3\10,1\3\11,1\4\12,1\4\13,1\4\14,1\5\15,1\5\16,1\5\17,1\5\18
REM DIRNAME folder01,folder02,folder03,folder04,folder05,folder06,folder07,folder08,folder09,folder10,folder11,folder12,folder13,folder14,folder15,folder16,folder17,folder18
TITLE ""
FILE "" MP3
  TRACK 01 AUDIO
    TITLE "15:cjc019_4423"
    INDEX 01 00:00:00
  TRACK 02 AUDIO
    TITLE "0:"
    INDEX 01 00:06:63
  TRACK 03 AUDIO
    TITLE "16:cjc019_4424"
    INDEX 01 00:07:72
  TRACK 04 AUDIO
    TITLE "0:"
    INDEX 01 00:08:72
  TRACK 05 AUDIO
    TITLE "18:cjc019_4425"
    INDEX 01 00:09:57
  TRACK 06 AUDIO
    TITLE "0:"
    INDEX 01 00:14:64
  TRACK 07 AUDIO
    TITLE "17:cjc019_4426"
    INDEX 01 00:15:38
  TRACK 08 AUDIO
    TITLE "0:"
    INDEX 01 00:16:36
  TRACK 09 AUDIO
    TITLE "16:cjc019_4427"
    INDEX 01 00:18:31
  TRACK 10 AUDIO
    TITLE "0:"
    INDEX 01 00:19:34
  TRACK 11 AUDIO
    TITLE "18:cjc019_4428"
    INDEX 01 00:20:16
  TRACK 12 AUDIO
    TITLE "0:"
    INDEX 01 00:21:41
  TRACK 13 AUDIO
    TITLE "17:cjc019_4429"
    INDEX 01 00:22:13
  TRACK 14 AUDIO
    TITLE "0:"
    INDEX 01 00:23:20
  TRACK 15 AUDIO
    TITLE "16:cjc019_4430"
    INDEX 01 00:24:72
  TRACK 16 AUDIO
    TITLE "0:"
    INDEX 01 00:26:09
  TRACK 17 AUDIO
    TITLE "18:cjc019_4431"
    INDEX 01 00:26:67
  TRACK 18 AUDIO
    TITLE "0:"
    INDEX 01 00:30:14
  TRACK 19 AUDIO
    TITLE "17:cjc019_4432"
    INDEX 01 00:30:65
  TRACK 20 AUDIO
    TITLE "0:"
    INDEX 01 00:32:05
  TRACK 21 AUDIO
    TITLE "16:cjc019_4433"
    INDEX 01 00:33:58
  TRACK 22 AUDIO
    TITLE "0:"
    INDEX 01 00:34:69
  TRACK 23 AUDIO
    TITLE "18:cjc019_4434"
    INDEX 01 00:35:43
  TRACK 24 AUDIO
    TITLE "0:"
    INDEX 01 00:38:04
  TRACK 25 AUDIO
    TITLE "17:cjc019_4435"
    INDEX 01 00:38:53
  TRACK 26 AUDIO
    TITLE "0:"
    INDEX 01 00:39:64
  TRACK 27 AUDIO
    TITLE "16:cjc019_4436"
    INDEX 01 00:41:42
  TRACK 28 AUDIO
    TITLE "0:"
    INDEX 01 00:42:53
  TRACK 29 AUDIO
    TITLE "18:cjc019_4437"
    INDEX 01 00:43:25
  TRACK 30 AUDIO
    TITLE "0:"
    INDEX 01 00:44:61
  TRACK 31 AUDIO
    TITLE "17:cjc019_4438"
    INDEX 01 00:45:37
  TRACK 32 AUDIO
    TITLE "0:"
    INDEX 01 00:46:43
  TRACK 33 AUDIO
    TITLE "16:cjc019_4439"
    INDEX 01 00:48:26
  TRACK 34 AUDIO
    TITLE "0:"
    INDEX 01 00:49:31
  TRACK 35 AUDIO
    TITLE "18:cjc019_4440"
    INDEX 01 00:50:07
  TRACK 36 AUDIO
    TITLE "0:"
    INDEX 01 00:52:49
  TRACK 37 AUDIO
    TITLE "17:cjc019_4441"
    INDEX 01 00:53:25
  TRACK 38 AUDIO
    TITLE "0:"
    INDEX 01 00:54:23
  TRACK 39 AUDIO
    TITLE "16:cjc019_4442"
    INDEX 01 00:56:04
  TRACK 40 AUDIO
    TITLE "0:"
    INDEX 01 00:57:13
  TRACK 41 AUDIO
    TITLE "18:cjc019_4443"
    INDEX 01 00:57:74
  TRACK 42 AUDIO
    TITLE "0:"
    INDEX 01 00:59:51
  TRACK 43 AUDIO
    TITLE "17:cjc019_4444"
    INDEX 01 01:00:25
  TRACK 44 AUDIO
    TITLE "0:"
    INDEX 01 01:01:40
  TRACK 45 AUDIO
    TITLE "16:cjc019_4445"
    INDEX 01 01:03:24
  TRACK 46 AUDIO
    TITLE "0:"
    INDEX 01 01:04:39
  TRACK 47 AUDIO
    TITLE "18:cjc019_4446"
    INDEX 01 01:05:19
  TRACK 48 AUDIO
    TITLE "0:"
    INDEX 01 01:07:21
  TRACK 49 AUDIO
    TITLE "17:cjc019_4447"
    INDEX 01 01:07:74
  TRACK 50 AUDIO
    TITLE "0:"
    INDEX 01 01:09:20
  TRACK 51 AUDIO
    TITLE "16:cjc019_4448"
    INDEX 01 01:10:73
  TRACK 52 AUDIO
    TITLE "0:"
    INDEX 01 01:12:07
  TRACK 53 AUDIO
    TITLE "18:cjc019_4449"
    INDEX 01 01:12:58
  TRACK 54 AUDIO
    TITLE "0:"
    INDEX 01 01:16:01
  TRACK 55 AUDIO
    TITLE "17:cjc019_4450"
    INDEX 01 01:16:52
  TRACK 56 AUDIO
    TITLE "0:"
    INDEX 01 01:17:65
  TRACK 57 AUDIO
    TITLE "16:cjc019_4451"
    INDEX 01 01:19:42
  TRACK 58 AUDIO
    TITLE "0:"
    INDEX 01 01:20:38
  TRACK 59 AUDIO
    TITLE "18:cjc019_4452"
    INDEX 01 01:21:18
  TRACK 60 AUDIO
    TITLE "0:"
    INDEX 01 01:22:50
  TRACK 61 AUDIO
    TITLE "17:cjc019_4453"
    INDEX 01 01:23:24
  TRACK 62 AUDIO
    TITLE "0:"
    INDEX 01 01:24:22
  TRACK 63 AUDIO
    TITLE "16:cjc019_4454"
    INDEX 01 01:26:03
  TRACK 64 AUDIO
    TITLE "0:"
    INDEX 01 01:27:20
  TRACK 65 AUDIO
    TITLE "18:cjc019_4455"
    INDEX 01 01:27:71
  TRACK 66 AUDIO
    TITLE "0:"
    INDEX 01 01:31:22
  TRACK 67 AUDIO
    TITLE "17:cjc019_4456"
    INDEX 01 01:31:73
  TRACK 68 AUDIO
    TITLE "0:"
    INDEX 01 01:33:15
  TRACK 69 AUDIO
    TITLE "16:cjc019_4457"
    INDEX 01 01:34:69
  TRACK 70 AUDIO
    TITLE "0:"
    INDEX 01 01:35:69
  TRACK 71 AUDIO
    TITLE "18:cjc019_4458"
    INDEX 01 01:36:45
  TRACK 72 AUDIO
    TITLE "0:"
    INDEX 01 01:39:51
  TRACK 73 AUDIO
    TITLE "17:cjc019_4459"
    INDEX 01 01:40:27
  TRACK 74 AUDIO
    TITLE "0:"
    INDEX 01 01:41:32
  TRACK 75 AUDIO
    TITLE "16:cjc019_4460"
    INDEX 01 01:43:13
  TRACK 76 AUDIO
    TITLE "0:"
    INDEX 01 01:44:19
  TRACK 77 AUDIO
    TITLE "18:cjc019_4461"
    INDEX 01 01:44:72
  TRACK 78 AUDIO
    TITLE "0:"
    INDEX 01 01:47:23
  TRACK 79 AUDIO
    TITLE "17:cjc019_4462"
    INDEX 01 01:47:74
  TRACK 80 AUDIO
    TITLE "0:"
    INDEX 01 01:49:14
  TRACK 81 AUDIO
    TITLE "16:cjc019_4463"
    INDEX 01 01:50:68
  TRACK 82 AUDIO
    TITLE "0:"
    INDEX 01 01:52:08
  TRACK 83 AUDIO
    TITLE "18:cjc019_4464"
    INDEX 01 01:52:63
  TRACK 84 AUDIO
    TITLE "0:"
    INDEX 01 01:54:23
  TRACK 85 AUDIO
    TITLE "17:cjc019_4465"
    INDEX 01 01:55:01
  TRACK 86 AUDIO
    TITLE "0:"
    INDEX 01 01:56:16
  TRACK 87 AUDIO
    TITLE "16:cjc019_4466"
    INDEX 01 01:57:72
  TRACK 88 AUDIO
    TITLE "0:"
    INDEX 01 01:59:22
  TRACK 89 AUDIO
    TITLE "18:cjc019_4467"
    INDEX 01 02:00:00
  TRACK 90 AUDIO
    TITLE "0:"
    INDEX 01 02:02:66
  TRACK 91 AUDIO
    TITLE "17:cjc019_4468"
    INDEX 01 02:03:38
  TRACK 92 AUDIO
    TITLE "0:"
    INDEX 01 02:04:66
  TRACK 93 AUDIO
    TITLE "16:cjc019_4469"
    INDEX 01 02:06:44
  TRACK 94 AUDIO
    TITLE "0:"
    INDEX 01 02:07:45
  TRACK 95 AUDIO
    TITLE "18:cjc019_4470"
    INDEX 01 02:08:23
  TRACK 96 AUDIO
    TITLE "0:"
    INDEX 01 02:11:35
  TRACK 97 AUDIO
    TITLE "17:cjc019_4471"
    INDEX 01 02:12:13
  TRACK 98 AUDIO
    TITLE "0:"
    INDEX 01 02:13:14
  TRACK 99 AUDIO
    TITLE "16:cjc019_4472"
    INDEX 01 02:14:69
  TRACK 100 AUDIO
    TITLE "0:"
    INDEX 01 02:15:72
  TRACK 101 AUDIO
    TITLE "18:cjc019_4473"
    INDEX 01 02:16:50
  TRACK 102 AUDIO
    TITLE "0:"
    INDEX 01 02:20:54
  TRACK 103 AUDIO
    TITLE "17:cjc019_4474"
    INDEX 01 02:21:30
  TRACK 104 AUDIO
    TITLE "0:"
    INDEX 01 02:22:35
